<svg xmlns="http://www.w3.org/2000/svg" width="300mm" height="300mm" viewBox="0 0 300 300">
   <rect width="300" height="300" x="0" y="0" fill="white" />
   <path
      d="M152.461 140.816q15.007 0 18.368-2.882 3.482-3 3.962-13.926.96-1.2 3.962-1.2 3.001 0 4.202 1.2-.48 14.767-.48 21.25 0 4.442.48 21.61-1.2 1.2-4.202 1.2-2.881 0-3.962-1.2-.48-6.603-1.44-9.485-.96-2.881-5.883-5.042-4.922-2.281-15.007-2.281h-22.33v59.307q0 10.565 8.764 10.565h33.495q23.41 0 32.175-32.175 4.442-.96 8.644 1.2-3.002 19.45-9.124 41.06-19.69-.48-31.455-.48h-52.824q-19.929.24-32.054.48-.96-.961-.96-3.842 0-3.002.96-4.202 13.806-.48 17.648-4.082 3.841-3.602 3.841-18.368v-98.565q0-14.767-3.841-18.249-3.842-3.601-17.648-4.082-.96-.96-.96-3.961 0-3.002.96-4.202l31.814.48h62.669q6.363 0 12.005-.96.96 0 .96.72 1.921 8.404 5.523 35.656-3.962 1.921-8.164 1.2-4.682-14.766-9.844-20.769-5.162-6.003-17.888-6.003h-25.932q-4.202 0-6.483 3.122-2.281 3.001-2.281 7.683v49.223z"
      aria-label="E" fill="black" />
</svg>
